<?xml version="1.0" ?><!DOCTYPE svg  PUBLIC '-//W3C//DTD SVG 1.1//EN'  'http://www.w3.org/Graphics/SVG/1.1/DTD/svg11.dtd'><svg enable-background="new 0 0 32 32" height="32px" id="Layer_1" version="1.1" viewBox="0 0 32 32" width="32px" xml:space="preserve" xmlns="http://www.w3.org/2000/svg" xmlns:xlink="http://www.w3.org/1999/xlink"><path d="M23.465,14.558c0,0,6.346,0.647,7.772-1.39c0.146-0.209,0.956-1.36,0.72-1.546  c-0.236-0.186-1.828-0.52-2.064-0.644c-0.236-0.124-0.113-0.538-0.827-0.868s-1.3-0.124-1.536-0.434s0.059-1.24-0.591-0.682  c-0.65,0.558-1.019,0.605-3.088,0.605s-4.191-1.344-4.655-1.367c-0.606-0.03-2.043-0.007-3.402,0.798c0,0-2.151-0.395-4.573-0.432  c-2.423-0.037-5.2,0.31-6.854,2.956S2.83,16.866,2.652,16.99c-0.177,0.124-1.064,2.169-1.359,2.479  c-0.295,0.31-1.123,1.797-1.241,2.913c-0.118,1.116,0,1.116,0,1.487s2.659,0.496,3.014,0.496s1.182-0.186,0.591-0.868  c-0.591-0.682-1.359-0.744-0.355-1.364s1.891-1.859,2.541-2.417s0.532-1.859,1.359-0.248c0.827,1.611,0.414,2.789,0.532,3.843  c0.118,1.054-0.532,1.161,0.827,1.054c2.004-0.159,3.672-0.035,3.849-0.097s-0.067-0.895-0.54-1.143  c-0.473-0.248-0.827-0.124-0.945-0.682s-0.429-2.895,0.591-3.657c1.601-1.196,2.718-0.558,2.718-0.558s-0.118,5.966,0.768,6.144  c0.886,0.178,1.654,0.008,2.304,0s2.794,0.106,1.182-1c-1.197-0.821-1.95-4.648-0.295-5.826c1.655-1.178,4.645,6.817,4.645,6.817  s1.087,0.178,1.914,0.089c0.827-0.089,1.3-0.027,1.891-0.337c0.591-0.31,0.295-0.744-0.768-1.178  c-1.064-0.434-0.709-0.992-1.064-1.735c-0.355-0.744-0.521-0.912-0.915-2.054c-0.38-1.103-0.197-0.363-0.503-1.85  C23.068,15.722,23.465,14.558,23.465,14.558z" fill="#404041"/></svg>